<mxfile host="Electron" agent="Mozilla/5.0 (Windows NT 10.0; Win64; x64) AppleWebKit/537.36 (KHTML, like Gecko) draw.io/26.1.1 Chrome/132.0.6834.210 Electron/34.3.3 Safari/537.36" version="26.1.1">
  <diagram name="Data Architecture" id="FksAimdKtwjlozb5iJPM">
    <mxGraphModel dx="880" dy="572" grid="1" gridSize="10" guides="1" tooltips="1" connect="1" arrows="1" fold="1" page="1" pageScale="1" pageWidth="850" pageHeight="1100" math="0" shadow="0">
      <root>
        <mxCell id="0" />
        <mxCell id="1" parent="0" />
        <mxCell id="rKrTJ9bnX5zvMQI1zEST-1" value="" style="rounded=0;whiteSpace=wrap;html=1;fillColor=none;dashed=1;strokeColor=light-dark(#000000,#3F66AB);" parent="1" vertex="1">
          <mxGeometry x="30" y="90" width="120" height="470" as="geometry" />
        </mxCell>
        <mxCell id="rKrTJ9bnX5zvMQI1zEST-2" value="Sources" style="rounded=0;whiteSpace=wrap;html=1;fontSize=24;strokeColor=none;" parent="1" vertex="1">
          <mxGeometry x="30" y="75" width="120" height="30" as="geometry" />
        </mxCell>
        <mxCell id="rKrTJ9bnX5zvMQI1zEST-3" value="" style="rounded=0;whiteSpace=wrap;html=1;fillColor=none;dashed=1;strokeColor=light-dark(#000000,#3F66AB);" parent="1" vertex="1">
          <mxGeometry x="193.75" y="80" width="490" height="480" as="geometry" />
        </mxCell>
        <mxCell id="rKrTJ9bnX5zvMQI1zEST-4" value="Data Warehouse" style="rounded=0;whiteSpace=wrap;html=1;fontSize=24;strokeColor=none;" parent="1" vertex="1">
          <mxGeometry x="318" y="75" width="215" height="30" as="geometry" />
        </mxCell>
        <mxCell id="rKrTJ9bnX5zvMQI1zEST-5" value="" style="rounded=0;whiteSpace=wrap;html=1;fillColor=none;dashed=1;strokeColor=light-dark(#000000,#3F66AB);" parent="1" vertex="1">
          <mxGeometry x="720" y="90" width="120" height="470" as="geometry" />
        </mxCell>
        <mxCell id="rKrTJ9bnX5zvMQI1zEST-6" value="Consume" style="rounded=0;whiteSpace=wrap;html=1;fontSize=24;strokeColor=none;" parent="1" vertex="1">
          <mxGeometry x="720" y="75" width="120" height="30" as="geometry" />
        </mxCell>
        <mxCell id="rKrTJ9bnX5zvMQI1zEST-7" value="Bronze Layer" style="rounded=0;whiteSpace=wrap;html=1;fillStyle=auto;fillColor=#a0522d;fontColor=#ffffff;strokeColor=#6D1F00;fontSize=20;fontStyle=1" parent="1" vertex="1">
          <mxGeometry x="210" y="105" width="132.5" height="30" as="geometry" />
        </mxCell>
        <mxCell id="rKrTJ9bnX5zvMQI1zEST-8" value="" style="rounded=0;whiteSpace=wrap;html=1;fillStyle=auto;fillColor=none;fontColor=#ffffff;strokeColor=#6D1F00;fontSize=20;" parent="1" vertex="1">
          <mxGeometry x="210" y="140" width="132.5" height="410" as="geometry" />
        </mxCell>
        <mxCell id="rKrTJ9bnX5zvMQI1zEST-9" value="Silver Layer" style="rounded=0;whiteSpace=wrap;html=1;fillStyle=auto;fillColor=#647687;fontColor=#ffffff;strokeColor=#314354;fontSize=20;fontStyle=1" parent="1" vertex="1">
          <mxGeometry x="370" y="105" width="132.5" height="30" as="geometry" />
        </mxCell>
        <mxCell id="rKrTJ9bnX5zvMQI1zEST-10" value="" style="rounded=0;whiteSpace=wrap;html=1;fillStyle=auto;fillColor=none;fontColor=#ffffff;strokeColor=#314354;fontSize=20;" parent="1" vertex="1">
          <mxGeometry x="370" y="140" width="132.5" height="410" as="geometry" />
        </mxCell>
        <mxCell id="rKrTJ9bnX5zvMQI1zEST-11" value="Gold Layer" style="rounded=0;whiteSpace=wrap;html=1;fillStyle=auto;fillColor=#f0a30a;fontColor=#000000;strokeColor=#BD7000;fontSize=20;fontStyle=1" parent="1" vertex="1">
          <mxGeometry x="527.5" y="105" width="132.5" height="30" as="geometry" />
        </mxCell>
        <mxCell id="rKrTJ9bnX5zvMQI1zEST-12" value="" style="rounded=0;whiteSpace=wrap;html=1;fillStyle=auto;fillColor=none;fontColor=#000000;strokeColor=#BD7000;fontSize=20;" parent="1" vertex="1">
          <mxGeometry x="527.5" y="140" width="132.5" height="410" as="geometry" />
        </mxCell>
        <mxCell id="rKrTJ9bnX5zvMQI1zEST-13" value="&lt;b&gt;CRM&lt;/b&gt;" style="image;aspect=fixed;html=1;points=[];align=center;fontSize=12;image=img/lib/azure2/general/Folder_Blank.svg;" parent="1" vertex="1">
          <mxGeometry x="70" y="170" width="49.29" height="40" as="geometry" />
        </mxCell>
        <mxCell id="rKrTJ9bnX5zvMQI1zEST-14" value="" style="image;aspect=fixed;html=1;points=[];align=center;fontSize=12;image=img/lib/azure2/general/File.svg;" parent="1" vertex="1">
          <mxGeometry x="100" y="180" width="24.34" height="30" as="geometry" />
        </mxCell>
        <mxCell id="rKrTJ9bnX5zvMQI1zEST-15" value="&lt;b&gt;ERP&lt;/b&gt;" style="image;aspect=fixed;html=1;points=[];align=center;fontSize=12;image=img/lib/azure2/general/Folder_Blank.svg;" parent="1" vertex="1">
          <mxGeometry x="70" y="300" width="44.24" height="35.9" as="geometry" />
        </mxCell>
        <mxCell id="rKrTJ9bnX5zvMQI1zEST-16" value="" style="image;aspect=fixed;html=1;points=[];align=center;fontSize=12;image=img/lib/azure2/general/File.svg;" parent="1" vertex="1">
          <mxGeometry x="94.95" y="310" width="24.34" height="30" as="geometry" />
        </mxCell>
        <mxCell id="rKrTJ9bnX5zvMQI1zEST-25" value="" style="endArrow=none;html=1;rounded=0;exitX=1.017;exitY=0.709;exitDx=0;exitDy=0;exitPerimeter=0;" parent="1" edge="1">
          <mxGeometry width="50" height="50" relative="1" as="geometry">
            <mxPoint x="152.03999999999996" y="401.23" as="sourcePoint" />
            <mxPoint x="30" y="401" as="targetPoint" />
          </mxGeometry>
        </mxCell>
        <mxCell id="rKrTJ9bnX5zvMQI1zEST-27" value="&lt;b&gt;Object Type&lt;/b&gt;: CSV Files&lt;div&gt;&lt;br&gt;&lt;div&gt;&lt;b&gt;Interface&lt;/b&gt;: Files in Folders&lt;/div&gt;&lt;/div&gt;" style="text;html=1;align=center;verticalAlign=middle;whiteSpace=wrap;rounded=0;" parent="1" vertex="1">
          <mxGeometry x="30" y="420" width="120" height="130" as="geometry" />
        </mxCell>
        <mxCell id="rKrTJ9bnX5zvMQI1zEST-29" value="" style="html=1;verticalLabelPosition=bottom;align=center;labelBackgroundColor=#ffffff;verticalAlign=top;strokeWidth=2;strokeColor=#314354;shadow=0;dashed=0;shape=mxgraph.ios7.icons.data;fillColor=#647687;fontColor=#ffffff;" parent="1" vertex="1">
          <mxGeometry x="400" y="149.5" width="86" height="109" as="geometry" />
        </mxCell>
        <mxCell id="rKrTJ9bnX5zvMQI1zEST-30" value="" style="html=1;verticalLabelPosition=bottom;align=center;labelBackgroundColor=#ffffff;verticalAlign=top;strokeWidth=2;strokeColor=#BD7000;shadow=0;dashed=0;shape=mxgraph.ios7.icons.data;fillColor=#f0a30a;fontColor=#000000;" parent="1" vertex="1">
          <mxGeometry x="557.5" y="149.5" width="86" height="109" as="geometry" />
        </mxCell>
        <mxCell id="rKrTJ9bnX5zvMQI1zEST-32" value="" style="shape=singleArrow;whiteSpace=wrap;html=1;fillColor=#dae8fc;gradientColor=#7ea6e0;strokeColor=#6c8ebf;" parent="1" vertex="1">
          <mxGeometry x="486" y="189" width="70.75" height="30" as="geometry" />
        </mxCell>
        <mxCell id="rKrTJ9bnX5zvMQI1zEST-35" value="" style="shape=singleArrow;whiteSpace=wrap;html=1;fillColor=#dae8fc;gradientColor=#7ea6e0;strokeColor=#6c8ebf;" parent="1" vertex="1">
          <mxGeometry x="663" y="249.5" width="70.75" height="30" as="geometry" />
        </mxCell>
        <mxCell id="rKrTJ9bnX5zvMQI1zEST-36" value="&lt;font style=&quot;font-size: 15px;&quot;&gt;Raw Data&lt;/font&gt;" style="text;html=1;align=center;verticalAlign=middle;whiteSpace=wrap;rounded=0;" parent="1" vertex="1">
          <mxGeometry x="232.69" y="275.4" width="93.75" height="30" as="geometry" />
        </mxCell>
        <mxCell id="rKrTJ9bnX5zvMQI1zEST-37" value="&lt;font style=&quot;font-size: 15px;&quot;&gt;Business-Ready Data&lt;/font&gt;" style="text;html=1;align=center;verticalAlign=middle;whiteSpace=wrap;rounded=0;" parent="1" vertex="1">
          <mxGeometry x="533.31" y="275.4" width="120" height="30" as="geometry" />
        </mxCell>
        <mxCell id="rKrTJ9bnX5zvMQI1zEST-38" value="&lt;font style=&quot;font-size: 15px;&quot;&gt;Clean, Standardized Data&lt;/font&gt;" style="text;html=1;align=center;verticalAlign=middle;whiteSpace=wrap;rounded=0;" parent="1" vertex="1">
          <mxGeometry x="370" y="270" width="130" height="20" as="geometry" />
        </mxCell>
        <mxCell id="rKrTJ9bnX5zvMQI1zEST-40" value="" style="shape=singleArrow;whiteSpace=wrap;html=1;fillColor=#dae8fc;gradientColor=#7ea6e0;strokeColor=#6c8ebf;" parent="1" vertex="1">
          <mxGeometry x="140" y="189" width="80" height="30" as="geometry" />
        </mxCell>
        <mxCell id="rKrTJ9bnX5zvMQI1zEST-41" value="" style="html=1;verticalLabelPosition=bottom;align=center;labelBackgroundColor=#ffffff;verticalAlign=top;strokeWidth=2;strokeColor=#6D1F00;shadow=0;dashed=0;shape=mxgraph.ios7.icons.data;fillColor=#a0522d;fontColor=#ffffff;" parent="1" vertex="1">
          <mxGeometry x="243.25" y="149.5" width="86" height="109" as="geometry" />
        </mxCell>
        <mxCell id="rKrTJ9bnX5zvMQI1zEST-42" value="" style="shape=singleArrow;whiteSpace=wrap;html=1;fillColor=#dae8fc;gradientColor=#7ea6e0;strokeColor=#6c8ebf;" parent="1" vertex="1">
          <mxGeometry x="330" y="189" width="70" height="30" as="geometry" />
        </mxCell>
        <mxCell id="rKrTJ9bnX5zvMQI1zEST-43" value="" style="endArrow=none;html=1;rounded=0;exitX=1.017;exitY=0.709;exitDx=0;exitDy=0;exitPerimeter=0;" parent="1" edge="1">
          <mxGeometry width="50" height="50" relative="1" as="geometry">
            <mxPoint x="340.59" y="317.84000000000003" as="sourcePoint" />
            <mxPoint x="218.55" y="317.61" as="targetPoint" />
          </mxGeometry>
        </mxCell>
        <mxCell id="rKrTJ9bnX5zvMQI1zEST-44" value="&lt;b&gt;Object Type&lt;/b&gt;: Tables&lt;div&gt;&lt;br&gt;&lt;div&gt;&lt;b&gt;Load&lt;/b&gt;:&amp;nbsp;&lt;/div&gt;&lt;div&gt;&lt;ul&gt;&lt;li&gt;Batch Processing&lt;/li&gt;&lt;li&gt;Full Load (Trunc &amp;amp; Insert)&lt;/li&gt;&lt;/ul&gt;&lt;/div&gt;&lt;/div&gt;&lt;div&gt;No Transformations&lt;/div&gt;&lt;div&gt;&lt;b&gt;Data Model&lt;/b&gt;: None (As-is)&lt;/div&gt;" style="text;html=1;align=left;verticalAlign=middle;whiteSpace=wrap;rounded=0;" parent="1" vertex="1">
          <mxGeometry x="216.25" y="330" width="120" height="179.5" as="geometry" />
        </mxCell>
        <mxCell id="rKrTJ9bnX5zvMQI1zEST-45" value="" style="endArrow=none;html=1;rounded=0;exitX=1.017;exitY=0.709;exitDx=0;exitDy=0;exitPerimeter=0;" parent="1" edge="1">
          <mxGeometry width="50" height="50" relative="1" as="geometry">
            <mxPoint x="502.5" y="317.84000000000003" as="sourcePoint" />
            <mxPoint x="380.46000000000004" y="317.61" as="targetPoint" />
          </mxGeometry>
        </mxCell>
        <mxCell id="rKrTJ9bnX5zvMQI1zEST-47" value="" style="endArrow=none;html=1;rounded=0;exitX=1.017;exitY=0.709;exitDx=0;exitDy=0;exitPerimeter=0;" parent="1" edge="1">
          <mxGeometry width="50" height="50" relative="1" as="geometry">
            <mxPoint x="655.35" y="317.84000000000003" as="sourcePoint" />
            <mxPoint x="533.3100000000001" y="317.61" as="targetPoint" />
          </mxGeometry>
        </mxCell>
        <mxCell id="rKrTJ9bnX5zvMQI1zEST-49" value="&lt;b&gt;Object Type&lt;/b&gt;: Tables&lt;div&gt;&lt;br&gt;&lt;div&gt;&lt;b&gt;Load&lt;/b&gt;:&amp;nbsp;&lt;/div&gt;&lt;div&gt;&lt;ul&gt;&lt;li&gt;Batch Processing&lt;/li&gt;&lt;li&gt;Full Load (Trunc &amp;amp; Insert)&lt;/li&gt;&lt;/ul&gt;&lt;/div&gt;&lt;/div&gt;&lt;div&gt;&lt;b&gt;Transformations&lt;/b&gt;:&lt;/div&gt;&lt;div&gt;&lt;ul&gt;&lt;li&gt;Data Cleaning&lt;/li&gt;&lt;li&gt;Data Standardization&lt;/li&gt;&lt;li&gt;Data Normalization&lt;/li&gt;&lt;li&gt;Derived Columns&lt;/li&gt;&lt;li&gt;Data Enrichment&lt;/li&gt;&lt;/ul&gt;&lt;/div&gt;&lt;div&gt;Data Model: None (As-is)&lt;/div&gt;" style="text;html=1;align=left;verticalAlign=middle;whiteSpace=wrap;rounded=0;" parent="1" vertex="1">
          <mxGeometry x="360.62" y="330" width="156.25" height="230" as="geometry" />
        </mxCell>
        <mxCell id="rKrTJ9bnX5zvMQI1zEST-50" value="&lt;b&gt;Object Type&lt;/b&gt;: Views&lt;div&gt;&lt;br&gt;&lt;div&gt;&lt;b&gt;No Load&lt;/b&gt;&lt;/div&gt;&lt;div&gt;&lt;b&gt;&lt;br&gt;&lt;/b&gt;&lt;/div&gt;&lt;div&gt;&lt;span style=&quot;background-color: transparent; color: light-dark(rgb(0, 0, 0), rgb(255, 255, 255));&quot;&gt;&amp;nbsp;&lt;/span&gt;&lt;b style=&quot;background-color: transparent; color: light-dark(rgb(0, 0, 0), rgb(255, 255, 255));&quot;&gt;Transformations:&lt;/b&gt;&lt;/div&gt;&lt;/div&gt;&lt;div&gt;&lt;ul&gt;&lt;li style=&quot;text-align: left;&quot;&gt;&lt;b style=&quot;background-color: transparent; color: light-dark(rgb(0, 0, 0), rgb(255, 255, 255));&quot;&gt;Data Integrations&lt;/b&gt;&lt;/li&gt;&lt;li style=&quot;text-align: left;&quot;&gt;&lt;b style=&quot;background-color: transparent; color: light-dark(rgb(0, 0, 0), rgb(255, 255, 255));&quot;&gt;Aggregations&lt;/b&gt;&lt;/li&gt;&lt;li style=&quot;text-align: left;&quot;&gt;&lt;b style=&quot;background-color: transparent; color: light-dark(rgb(0, 0, 0), rgb(255, 255, 255));&quot;&gt;Business Logics&lt;/b&gt;&lt;/li&gt;&lt;/ul&gt;&lt;/div&gt;&lt;div&gt;&lt;b&gt;Data Model:&lt;/b&gt;&lt;/div&gt;&lt;div style=&quot;text-align: left;&quot;&gt;&lt;ul&gt;&lt;li&gt;&lt;b&gt;Star Schema&lt;/b&gt;&lt;/li&gt;&lt;li&gt;&lt;b&gt;Flat Table&lt;/b&gt;&lt;/li&gt;&lt;li&gt;&lt;b&gt;Aggregated Table&lt;/b&gt;&lt;/li&gt;&lt;/ul&gt;&lt;/div&gt;" style="text;html=1;align=center;verticalAlign=middle;whiteSpace=wrap;rounded=0;" parent="1" vertex="1">
          <mxGeometry x="533.75" y="400" width="120" height="130" as="geometry" />
        </mxCell>
        <mxCell id="rKrTJ9bnX5zvMQI1zEST-57" value="&lt;font style=&quot;font-size: 20px;&quot;&gt;&lt;b&gt;High Level Architecture&lt;/b&gt;&lt;/font&gt;" style="text;html=1;align=center;verticalAlign=middle;resizable=0;points=[];autosize=1;strokeColor=none;fillColor=none;" parent="1" vertex="1">
          <mxGeometry x="326.44" y="10" width="250" height="40" as="geometry" />
        </mxCell>
        <mxCell id="rKrTJ9bnX5zvMQI1zEST-59" value="" style="shape=image;verticalLabelPosition=bottom;labelBackgroundColor=default;verticalAlign=top;aspect=fixed;imageAspect=0;image=data:image/png,iVBORw0KGgoAAAANSUhEUgAAAgAAAAIACAYAAAD0eNT6AAAAAXNSR0IArs4c6QAAIABJREFUeAHtnQ3cHVV95x9QVKpWqt1ua6tdXXdd9+Paz1bX6iqZcxNeNkDUUu5mziSBNEgg98yTFwmCQttHXmx0LQgoiiJFqqK8WG0QEURUQgTJAwTIAxIkYfl0fd1t7acFVMxsJ2Emz8u95zl37rycM+ebzyefO8+dMzPnfM9/5ve972Nj/IMABCAAAQhAAAIQgAAEIAABCEAAAhCAAAQgAAEIQAACEICAnQREt/fbnUi9XUTq9ECqTwmp/i6Q6hYh1TYh1TdEqDaLUP21kL0zOlHv2MPD+KV2joReQQACEIAABCCgJSDC+A1CqgsCqXYIqZIC/x8SYXxxINWbtQdiJQQgAAEIQAACzRLodieeI6R65wih31cUAqm+J0KlxMqVz2t2hBwdAhCAAAQgAIH9BCYmDgzC3klCqscLPNLvG/oD9vODVAS63e6z9h+cJQhAAAIQgAAEaifQWTr+B0KqOwYE9jDhbtw2iNRksLT332ofLAeEAAQgAAEIQGBsrBP1jhdSPVFn+E871i9FFE+MTUwcyFxAAAIQgAAEIFADgWde6//MtDA2fvRe9jZBGF/HewNqmHQOAQEIQAACfhM4YsXG54uod0PZQT7S/sLedxYdr17i98wweghAAAIQgEBFBJ555H/TSGFd7COB8z/DEKrvim7vBRUNnd1CAAIQgAAE/CSQvvN+79PtVQV4Ofv96utXrz7Izxli1BCAAAQgAIEKCARSvc/KR/5zxeFDFQyfXUIAAhCAAAT8I9AJ1aJAql85IgB7Atlb4t8sMWIIQAACEIBAiQSWLFn9a0KqXY6Ef/ZegR+KlesPKREDu4IABCAAAQj4RUCEapNj4b9PAsL4Yr9mitFCAAIQgAAESiJwWHftywOpfu6kAEj1dGf5mleXhILdQAACEIAABPwh0JHqIkfDf++zAB2pLvdnthgpBCAAAQhAoAQC6RfrNPg1v9lr+aPe/kIsG/+9EnCwCwhAAAIQgIAfBPb+/O7cj9iNGsj1bx+p0/2YMUYJAQhAAAIQKIFAINWdLj/9n/U9kGpHCTjYBQQgYDmB9JM/CyO1IP1p8iBU54mo97FOpK7syPhzQagu7Uj1wU6o1nai+MgFYe9llg+H7kGgGQJHrDjlt4RUe7IQdf124dLxf98MSY4KAQhUSUAsW/MmIdWHhOzdPfR3lYTq0UCqT3XC+G18g2iVs8S+nSIQyJ50PfSn9z99RODUBNBZCEBgIIH0Nz+E7J0qpHpo+nk+4vKPO1F8Ps8MDMTOCl8IdEJ1yYgnU/2v9evfr/AZX+aOcUKgrQTe3N1wsAjVWUKqn1Z1fdr7seewd9nhYfzStnJkXBDQEgik+lZVJ1gT+w0iNakdMCshAAGrCXQidVQg1ffrun4EUv1MSLU+/RE0q8HQOQiUTUBI9cO6TrSajvPPY2NjB5TNif1BAALVEli8ePy5QaQurOk6MeeZy/TB0MLuKb9b7SjZOwQsIdDtTjynqZOtyuMe2d3wYksQ0w0IQMCAQPo0fPrsXZXXBcN9/zgIxw816DJNIOA2gTQoDU+KObZs83YLI/X7bs8MvYeAPwQWRWteKUK106JrylMi7B3nzwwwUi8JpN//b9FJV5pkLFgW/xcvJ5RBQ8AxAmJ571WWvgz5dCfqHesYTroLAXMC6etdrRSApb3XmFOgJQQg0ASBfd9B0nvY1mtQ+imBQKrDm2DDMSFQOYHDuqtfZOvJN1K/+E2AymuHA0BgFALpl/H8a7jePtJ5rv84cFnPKP7DghXxK0YZK9tCwEoC6cdehFRPO3ASDnUyv2XVqhdaCZxOQQACewkEUv2VK9ed9KvS0zdMM3UQaB2BOj9vW9MJ/+PWTRIDgkCLCKTf4e/a148HUe/PWjQFDAUC+wiIqHdDTcE81KP4Efp0G3MLAQjYSUCIiWcHUm0f4fyu6zoy+zhPpJ9WsJMqvYJAQQJCxn/p4Mk4++Tc/3ekPlIQBZtBAAIVExBRL3b4enNtxXjYPQTqJZD+XKbDJ+T+4H/mDUEdGf9JvQQ5GgQgYEIgfeOfkGq3w9ebPWLpKa81GSttIOAEgSNWbHy+kOoph0/K6RLw9KLj1UucAE8nIeAZARH1Vrp+nelE6krPpo3htp3AMas23uL6iZn2/+gTT72z7XPF+CDgKgERqi0tuM48KVauP8TVOaDfEJhBYPKhR193+TVfS38Na/ojaSeXP/a565+YnNr1phkD5A8IQKBxAs9849+eNlxnRBSf2DhQOgCBUQmk4T85tfsn373/0eTtJ5/hZOhnF5SjVm1MvrN9ZzI5tftnSMColcH2ECiXgAjjjdm56v5tfH25dNgbBGomkIX/5NTuNDST8y+/1mkB2HTp5/aO45nxIAE11xOHg4COQMs+bvxP6RsadeNlHQSsJTA7/NPQTB89Lznp3U5KwOJVpyZb7vnedAHgmQBrq4+OeUdgYuJAIdU/uf/If//LpJ1Q/ZF388iA3SfQL/yzZwEu/fxXnBSAi//my7PDP/ubZwLcL1lG4DiBvT/324L3GE0XmE6oVjk+LXTfNwK68E8lYNuOXcmJ79nklASsOPWc5K4du7LA73eLBPhW6IzXKgLB0njx9PBsw3Igex+wCjKdgYCOwHzhnz0LcMsd9ydHn3iaExJw5Akbkhtvu7tf6M++DwnQFQfrIFAhgSBSa9oQ+tPHEEj1hQqRsWsIlEfANPwzCbjyS19POlFsvQRcds2Ns4Ne9zcSUF5JsScIGBMQkTp9eni2ZPmrxgBoCIGmCAwb/pkEXHzl31otAJsuvUoX9oPWIQFNFSLH9ZZAJ4zPbkno778mhmqLtxPKwN0gUDT8Mwk45yN/s7/gLXoTz1nnf2pQwJvcjwS4Ub70siUERKTOQQBaMpkMww0Co4Z/JgEfvuI6q14OOOuCy/e+WTHrX8FbJMCNMqaXLSDASwAtmESG4A6BssI/C9dLr/pKcvjx6xp9NuCwFWsTzcf9TB75z26DBLhT0vTUYQIijE9p2zMAvAnQ4YJsc9fLDv9MAm749mQSrptoRAL++JT3JF+8eevsAC/jbySgzScDY7OCAB8DtGIa6ETbCVQV/pkE3LH9keT9H/9ckj4ar8PoFy4bT9Kn/Lfe+3AZYT9oH0hA208MxtcogQUr4lfUcb2o8xh8EVCjJcXBZxOoOvwzCUhvb7ztnuRd53006Swbr0QE0o8grjv7oiR91mH6cStcRgJmFxR/Q6AsAnwVcFkk2Q8E5hKoM/ynh/D1t353y6Llaz8aSPWjMuw7kOr/Lly29mPX3bz15unHqWkZCZhbWtwDgVIIBFJ9pYxrhCX74MeASqkKdjIygabC/+6pXTdtffzxg9MBpL+M1YnUUUGkLhQyvl9IZfy734FUO0QYXxzI3pJud+I56f62bdt20OTU7i/WFPzTn2VAAkauSHYAgbkEhOydakl4j/6sZag2zx0h90CgZgI2hH+/IYtu7wULl6o/DGRPdkK1thOp94pQbRIyPlNE8bpOGEcijN+weNn4r/fbPr0PCRhEhvsh4B6BZ94HYPzAwGZZ4PV/9+qvdT22NfzLBI0ElEmTfUGgWQJHn3jaDpuD3bBvTx7WXf2iZklydK8J+BD+2QQjARkJbiHgLoFtU7uPvuSqzb80DNnRn6av6JtLAxl/2t1ZoOfOE/Ap/LPJQgIyEtxCwD0CafhPTu1+6rsPPJqk3+nhsATsEUtPea17M0CPW0HAx/DPJg4JyEhwCwF3CGThn72h96JP2/0jY/PIyTXukKenrSLgc/hnE4kEZCS4hYD9BGaHfyoBdz3waBKtb+YbRecJ9/memXhiUbTmlfZTp4etI0D4759SJGA/C5YgYCuBfuGfPQtwzY1brPqBMSMxCNVZtrKmXy0mQPjPnVwkYC4T7oGALQR04Z9JwMRFV8z3iNua9YFUd2bfUWILY/rhAQHCf/AkIwGD2bAGAk0RMAn/VALSNwSuPO08a0J+0LMA6beTHtZd+/KmeHJcTwkQ/vNPPBIwPyNaQKAuAqbhnz0L8K27Hky68Vk2S8CTCyO1oC5+HAcCewkQ/uaFgASYs6IlBKoiMGz4ZxLwtdvvSY5552k2SsDTQaj+uCpe7BcCfQkQ/n2xaO9EArR4WAmBSgkUDf9MAm6+/d7kuJ5VzwQ8JcLecZVCY+cQmE2A8J9NxPxvJMCcFS0hUBaBUcM/k4Bb73wgWf6ucxp/JmDfL5v23loWH/YDASMChL8RJm0jJECLh5UQKJVAWeGfScCd930/OeuCyxv8iGD8zcPD+KWlQmJnEJiPAOE/HyHz9UiAOStaQqAogbLDP5OA9Pazm2+t+yWBf0x/tbTb7T6rKA+2g0AhAoR/IWzajZAALR5WQmAkAlWGfyYCd973SPLBT34+OWrVxspeFgik+nlHxp84dPnq3xkJCBtDoAgBwr8INbNtkAAzTrSCwDAE6gj/TALS2633Ppycf/m1ydtOevc/DPqsfoH7f9yJ4vMXhL2XDTN22kKgNAKEf2koB+4ICRiIhhUQGJpA3eGfi8CDj308SZIDFkbjb+xI9cEgUpOBVL8aJvgDqb4vpPpkIHtLXr969UFDD54NIFAWAcK/LJLz7wcJmJ8RLSAwH4Gmw392/8TK9YcE4fihQqp3Ctk7txOqSzqRulJIdVUQqkv3ioKMxxcu7R3BI/3Z9Pi7MQKEf/3okYD6mXPE9hCwLfzbQ5aReEWA8G9uupGA5thzZHcJEP7uzh09t4gA4d/8ZCABzc8BPXCHAOHvzlzRU4sJEP72TA4SYM9c0BN7CRD+9s4NPXOIAOFv32QhAfbNCT2yhwDhb89c0BOHCRD+9k4eEmDv3NCz5ggQ/s2x58gtIkD42z+ZSID9c0QP6yNA+NfHmiO1mADh787kIgHuzBU9rY4A4V8dW/bsEQHC373JRgLcmzN6XB4Bwr88luzJYwKEv7uTjwS4O3f0vDgBwr84O7aEQE6A8M9ROLuABDg7dXS8AAHCvwA0NoHAbAKE/2wi7v6NBLg7d/TcnADhb86KlhAYSIDwH4jG2RVIgLNTR8cNCBD+BpBoAoH5CBD+8xFydz0S4O7c0fPBBAj/wWxYAwFjAoS/MSpnG16dJM+anNp9Vf675FO7k5qWfzY5tetNzoKj41YSIPytnBY65RoBwt+1GSveXySgODu2tIcA4W/PXNAThwkQ/g5PXsGuIwEFwbGZFQQIfyumgU64ToDwd30Gi/cfCSjOji2bI0D4N8eeI7eIAOHfosksOBQkoCA4NmuEAOHfCHYO2jYChH/bZrT4eJCA4uzYsj4ChH99rDlSiwkQ/i2e3IJDQwIKgmOzWggQ/rVg5iBtJ0D4t32Gi48PCSjOji2rI0D4V8eWPXtEgPD3aLILDhUJKAiOzSohQPhXgpWd+kaA8PdtxouPFwkozo4tyyNA+JfHkj15TIDw93jyCw4dCSgIjs1KIUD4l4KRnfhOgPD3vQKKjx8JKM6OLYsTIPyLs2NLCOQECP8cBQsFCSABBcGxWSEChH8hbGwEgZkECP+ZPPirOAEkoDg7tjQnQPibs6IlBAYSIPwHomFFQQJIQEFwbGZEgPA3wkQjCOgJEP56PqwtTgAJKM6OLQcTIPwHs2ENBIwJEP7GqGhYkAASUBAcm/UlQPj3xcKdEBiOAOE/HC9aFyeABBRnx5b7CRD++1mwBIHCBAj/wujYsCABJKAgODbbS4DwpxAgUAIBwr8EiOyiEAEkoBA27zci/L0vAQCUQYDwL4Mi+xiFABIwCj3/tiX8/ZtzRlwBAcK/AqjsshABJKAQNu82Ivy9m3IGXAUBwr8KquxzFAJIwCj02r8t4d/+OWaENRAg/GuAzCEKEUACCmFr/UaEf+unmAHWQYDwr4MyxxiFABIwCr32bUv4t29OGVEDBAj/BqBzyEIEkIBC2Fq3EeHfuillQE0QIPyboM4xRyGABIxCz/1tCX/355ARWECA8LdgEuhCIQJIQCFszm/UWPhP7fpwkiQHOA+QAUAgJUD4UweuE0ACXJ/B4fpP+A/Hi9YQ6EuA8O+LhTsdJIAEODhpBbpM+BeAxiYQmE2A8J9NhL9dJ4AEuD6D+v4T/no+rIWAEQHC3wgTjRwkgAQ4OGkGXSb8DSDRBALzESD85yPEetcJIAGuz+DM/hP+M3nwFwQKESD8C2FjIwcJIAEOTlqfLhP+faBwFwSGJUD4D0uM9q4TQALcnkHC3+35o/eWECD8LZkIulE7ASSgduSlHLC58H/sAj7nX8oUshMbCBD+NswCfWiSABLQJP3hj034D8+MLSAwhwDhPwcJd3hKAAlwY+IJfzfmiV5aToDwt3yC6F7tBJCA2pEPdUDCfyhcNIZAfwKEf38u3AsBJMDOGiD87ZwXeuUYAcLfsQmju7UTQAJqR649IOGvxcNKCJgRIPzNONEKAkiAHTVA+NsxD/TCcQKEv+MTSPdrJ4AE1I58xgEJ/xk4+AMCxQgQ/sW4sRUEkIBmaoDwb4Y7R20ZAcK/ZRPKcGongATUi5zwr5c3R2spAcK/pRPLsGongATUg5zwr4czR2k5AcK/5RPM8GongARUi5zwr5Yve/eEAOHvyUQzzNoJIAHVICf8q+HKXj0jQPh7NuEMt3YCSEC5yAn/cnmyN08JEP6eTjzDrp0AElAOcsK/HI7sxXMChL/nBcDwayeABIyGnPAfjR9bt4vAAYuOVy9ZFK155SK55nWLlo3/ZxGe8u/esmrVC+cbJuE/HyHWQ6AaAkhAMa5tDP/k3W97YbI2ej3/CzCIu68oVkmObrVoqfqPQvZODiL1WSHVPUGk/kVIlQz4/5NAqttFGF8swt5xQq7+zWzYhH9GglsINEMACRiOexvDPyWQrJOHJ+vDhP8FGGyQVw9XRQ62XhD2XtaJ1HuFVA8OCPpBAjD7/qeFVDf96WnvP+s79zz808mp3Umd/++e2nXT1scfP9jBKaDLEKiEABJghrWt4Z+OHgEoEPyZMLVZABYs7b0mkPGnhVS/GDH4Z4tAcvSJpyWbPv65ZMvkQ7VIAOFvdqGjlX8EkAD9nLc5/NORIwAIwIwzQKxcf0gQqQuFVOkj9jnhXeZ9i1e+K/nwFdcl2x54tDIRIPxnTC9/QGAOASRgDpK9d7Q9/NNBIgAIQF79QsbvCKT6UZkhb7KvFaeek9x42z2lSwDhn08tCxDQEkACZuLxIfzTESMACMBYtzvxHCHVBUKqPSaBXUWbI0/YkFz2ha+WJgGE/8wLGn9BYD4CSMA+Qr6EfzpaBMBzAThixcbnC6m+WkWoF9nn2RdfObIEEP7zXepZD4H+BHyXAJ/CP60ABMBjAXhrtOY3AqnuLBLUVW5z5vmXJdt27CokAoR//ws790LAlICvEuBb+Kf1gAB4KgBv7m44WMjet6sM8lH2fc5Hh38mgPA3vcTTDgJ6Ar5JgI/hn1YAAuCnABwQSPXlUQK6jm0vvvJvjZ8FIPz1F3TWQmBYAr5IgK/hn9YDAuChAIhInV5HgI96jEXLxpMv3rx1Xgkg/Ie9tNMeAmYE2i4BPod/WgEIgGcC0AnVHwmpfjlqONe1/bG9M5Ot9z48UAIIf7MLOa0gUJRAWyXA9/BP6wEB8EgAut3us9Lv8K8rvMs6zsRFV/QVAMK/6CWd7SAwHAHbJCD96HL642P/+nsjhwdR3A1k/KdBqFZ0ot6xIoxF+qNkY2NjBwwaJeG/jwwC4JEAiCheV1Yo17mf9KWAG749OUMCCP9Blzbuh0A1BJqUgGtuuP2IQPZkR8afEFI9ZPgs5hNCqjtEqDYtXNo7IpWGlAzhv78+EABPBECsXPk8IeP/U2dwl3msdWdflAsA4b//BGYJAnUSqFMC0o8Cf+bLtyTj77swWbRibRlfS/6TaP3E323+xl0/r/OHyPYd67ELkiQZ+IxEnXM4/VgIgCcC0AnV2jIDue59daJ477MAhP/005dlCNRPoGoJuGvHruSTV381kesmygj9OftIryXqLy5IvvT1O/IHFdUKgZ3hn1YOAuCHABwgQrWz7tAu+3jrz/3I/+Ynfeu/4HNECMwmUJUEbL71rmTlaefNCe2yryXp/lIR2PiXlyTf2jZVoQjYG/7pnCIAHghAZ1n8lipOoLr3GUTq/2Wv482+IPE3BCBQL4EyJSD9RdDzLvls0lk2Xkv4T792HbVqY3Lll75egQTYHf5ptSAAHghAIOOPTi94l5cD2VtS72WOo0EAAoMIlCEB37prKjnxPZtqD/7p18H02YC/uPCvS/xpcvvDP51TBMADAWjD0//5yRrGFw+6GHE/BCBQP4FRJODmrduTbnxWo+GfX1uk2vvegDu2PzLiswFuhH9aKQhAywVgQdh72fQCd385vr/+SxxHhAAEdASKSMCNt92TvO2k060J/+zamD4bUVwC3An/dD4RgJYLQEfGf5IVdktu9yxeNv7ruosR6yAAgfoJDCMBt975QHLsmvdaF/7ZNbL35+cndz3w6JDPBLgV/mmFIAAtFwAh4zOzom7NbRi/of7LG0eEAATmI2AiAXds35nI9dV8xK/Ma9x7/+qyIQTAvfBP5xIBaL0AqCvKPCls2FcnjKP5LkSshwAEmiGwbdu2gyandl836LP1p3/g49Y+8p99ffvk1TcYSMCuD9v4JT8ms48AtF4A4utnF7Xzf0fxOpPipg0EINAMgUHPBFx+3decCf/0Onnkyg3JLXfcr5EANx/5Z1WBALRcAAKpvuV84Es186IRqrOyAuYWAhCwk8BsCUh/1fPtJ58x81yefW5b+Pf0ryGf+ayG2+GfVg0C0H4BuLNtAhCE6jw7L3n0CgIQmE5gugS876JPOxf+2bXzquu/OetZAPfDP50nBKDlAiBk/M2siNtzG585/SLDMgQgYC+BVAJuufP+Lx55wgZnBeCEjedOE4B2hH9aMQhA2wUgVJvbE/z7XgoIZDxu7+WOnkEAArMJdCJ1nuvXoatvuC2ZnGpP+KdzhAC0XAA6Ul3u+ok3p/+RCmdfYPgbAhCwk4AQE88WUv1gznls4ev9uj6e8O7zvufqu/0HVQYC0HIBELJ3hq6oXVy3IBz/r4MKmvshAAG7CKS/3+HidaZPn58UK9cfYhfd0XqDALReAOJ39ClkZ1+LE1LtOWLFxuePVvZsDQEI1EVASPWZtlyDOlHv+Lq41XEcBKDlAnDo8tW/k4ZmW05AIdW9dZwYHAMCECiHQCDV37fl+hPI+NPlULFjLwhAywUgLTMh1VRbTsBOFJ9vx6lTrBfdx7cefOSOrS/m//AMFu+84bnFqLNVUwSEjP9TW649z4zj8aZYVnFcBMAPAbigPSdh739UcSLUtc8lO2/fdMzOLQn/h2ew5OEtJ9c1TxynHALp13a359qz71NIh3bH/005dJrfCwLggwCE8RvacBIGUv0ofUdx86dN8R4gAMMHfyZLCEDxumtqy0Cq97Xh2jNzDL23NsWz7OMiAB4IQFo0QqoHZhbxrK/XdeMjOReUfQLUvT8EAAGou+aaPF4Qqc+24Loz803TUW9lk0zLPDYC4IkABGHvJMdPxKcXRGv/Q5nF38S+EAAEoIm6a+qYIurd4Ph1Z2b4S5UEYW9DUzzLPi4C4IkAvH716oOCSD3m6snYlnffIgAIQNkXcZv3J2Tv265ecwb1uyPVn9vMfJi+IQCeCEBaFEKqdw4qasvvf1Is771qmMK2tS0CgADYWptV9EuEve9Yfm2Z8wh/vv626cfIEACPBGBsYuJAIdXW+QrcuvVRPFHFxamJfSIACEATddfUMUWkvm7d9WTk9zv1zmiKZ9nHRQB8EoCxsbFFcs3rhFRPunJSBlLtECtXPq/swm9qfwgAAtBU7TVxXBGqL7lyrTHuZ6hUEyyrOCYC4JkApEXUkb2ecbGPbMsjfdrgyc7S8T+oovCb2icCgAA0VXtNHLcTqkscudYM8VJA/I4mWFZxTATAQwFIC6kTqSstPzH3CBkvr6Lom9wnAoAANFl/dR9bRPE6y68zQwT/vgczC5b2XlM3x6qOhwB4KgDppwJs/ohOR8bvrqrom9wvAoAANFl/dR974dLeES0TgF8sXjzemq+kRgA8FYD0QiC6vRcIqb5h3QkaqXPqvlDVdTwEAAGoq9ZsOM5bVq16oZDql9ZdY4q+tBmqLTZwLasPCIDHApAWUbc78ZxAqi9YcoLuEbJ3alnFbeN+EAAEwMa6rLJPQqo7LLm+DP10/+x+p19tXCWruveNAHguAHsLbmLiwPTLLYRUT88u+Br//kknUkfVfQLUfTwEAAGou+aaPl4Q9f6sxuvIyCGv7euyNW9qmmeZx0cAEIC8nkQYCyHVLu0JUPSpM9126WeFl43/Xt6RFi8gAAhAi8u779AWRur3hVR7ar+u6K45RdaFaufY2NgBfQfp6J0IAAIwo3SXLFn9a0L2zhVSPVX1CRtI9feB7MkZHWj5HwgAAtDyEu87PCHVrVVfT6rff3xm38E5fCcCgAD0Ld9Fct2/FaHaFETqXyo4sX4oInV6Kht9D97iOxEABKDF5T1waJ1wzdEVXEeqfbp/5rME/yzk6t8cOEBHVyAACIC2dI/sbnhxEKk1z3yF8ChP46XfPnhtJ1JvT994qD1oi1ciAAhAi8tbOzQh1TZXJSCQvQ9oB+foSgQAATAu3SNWnPJbHan+ZyDjj6YfH0yfwh9wQv9ShGqnkPH16Q9niGj8sDd3NxxsfKAWN0QAEIAWl7d2aOl1YMD1os5H8kWO9dM2PvpPJwsBQAC0J+28KycmDnxrtOY30jf6LOye8ruHdVe/aN5tPG6AACAAHpf/mIh6n3dNAjqhWtXWOUMAEIC21raV40IAEAArC7OmTolu77eFVD90RQKCKP5a2975P32qEQAEYHo9sFwxAQQAAai4xKzffRD1Og1/54jpywA/TIXFeqAjdBABQABGKB82HZasfF6xAAAazUlEQVQAAoAADFszbWyf/taH5c8CPLEw7P33NrKfPiYEAAGYXg8sV0wAAUAAKi4xZ3YvpPqQpRLwdCfqHesMyBE6igAgACOUD5sOSwABQACGrZkWtz8giNSFlknAU0EUd1vMfMbQEAAEYEZB8Ee1BBAABKDaCnNv70LGZ1ryVcH/uFDGC90jWLzHCAACULx62HJoAggAAjB00XiwgVimjhFS/bS5ZwN6d4vlvVd5gHrGEBEABGBGQfBHtQQQAASg2gpzd+8Lwt7LAqm+UrME/KIj1QcXLx5/rrvkivccAUAAilcPWw5NAAFAAIYuGs82SN+AF0j1/apFIJDqFrH0lNd6hnfGcBEABGBGQfBHtQQQAASg2gprx96FmHh2EKoVQqoHyhSBQKpfiah3g5C9t7aD1GijQAAQgNEqiK2HIoAAIABDFQyNxxZG428UYXxxEKnHisjA3tCXvbs7kXrvYd21LwfpfgIIAAKwvxpYqpwAAoAAVF5kLT5A+ka99Lv5RdT7XyJUm4VU9zzzckH6BsIf7PsRMnVH+psDnTA+O305YdHx6iUtRjLS0BAABGCkAmLj4QggAAjAcBVDawhURwABQACqqy72PIcAAoAAzCkK7oBAQwQQAASgodLz87AIAALgZ+UzahsJIAAIgI112do+IQAIQGuLm4E5RwABQACcK1qXO4wAIAAu1y99bxcBBAABaFdFWz4aBAABsLxE6Z5HBBAABMCjcm9+qAgAAtB8FdIDCOwjgAAgAJwLNRJAABCAGsuNQ0FASwABQAC0BcLKcgkgAAhAuRXF3iBQnAACgAAUrx62HJoAAoAADF00bACBigggAAhARaXFbvsRQAAQgH51wX0QaIIAAoAANFF33h4TAWheAJLty1+dbF92HP+LMFj+am9P3hYOHAFAAFpY1vYOCQGwQADuXXZGsn15wv8CDO5bfrq9Zxc9G5YAAoAADFsztB+BAAKAADgtHgjACGe/fZsiAAiAfVXZ4h4hAAgAAtDiE9yxoSEACIBjJet2dxEABAABcPscblPvEQAEoE31bP1YEAAEAAGw/jT1poMIAALgTbHbMFAEAAFAAGw4E+lDSgABQAA4E2okgAAgAAhAjScch9ISQAAQAG2BsLJcAggAAoAAlHtOsbfiBBAABKB49bDl0AQQAAQAARj6tGGDigggAAhARaXFbvsRQAAQAASg35nBfU0QQAAQgCbqzttjIgAIAALg7elv3cARAATAuqJsc4cQAAQAAWjzGe7W2BAABMCtinW8twgAAoAAOH4St6j7CAAC0KJytn8oCAACgADYf5760kMEAAHwpdatGCcCgAAgAFacinSCLwJKkvUIACdCjQQQAAQAAajxhONQWgI8A4AAaAuEleUSQAAQAASg3HOKvRUngAAgAMWrhy2HJoAAIAAIwNCnDRtURAABQAAqKi12248AAoAAIAD9zgzua4IAAoAANFF33h4TAUAAEABvT3/rBo4AIADWFWWbO4QAIAAIQJvPcLfGhgAgAG5VrOO9RQAQAATA8ZO4Rd1HABCAFpWz/UNBABAABMD+89SXHiIACIAvtW7FOBEABAABsOJUpBN8ERBfBMRZUC8BBAABQADqPec42mACPAPAMwCDq4M1pRNAABAABKD004odFiSAACAABUuHzYoQQAAQAASgyJnDNlUQQAAQgCrqin0OIIAAIAAIwICTg7trJ4AAIAC1F53PB0QAEAAEwOcrgF1jRwAQALsqsuW9QQAQAASg5Se5Q8NDABAAh8rV/a4iAAgAAuD+edyWESAACEBbatmJcSAACAAC4MSp6kUnEQAEwItCt2WQCAACgADYcjbSDwQAAeAsqJEAAoAAIAA1nnAcSksAAUAAtAXCynIJIAAIAAJQ7jnF3ooTQAAQgOLVw5ZDE0AAEAAEYOjThg0qIoAAIAAVlRa77UcAAUAAEIB+Zwb3NUEAAUAAmqg7b4+JACAACIC3p791A0cAEADrirLNHUIAEAAEoM1nuFtjQwAQALcq1vHeIgAIAALg+Encou4jAAhAi8rZ/qEgAAgAAmD/eepLDxEABMCXWrdinAgAAoAAWHEq0omxsTEEAAHgRKiRAAKAACAANZ5wHEpLAAFAALQFwspyCSAACAACUO45xd6KE0AAEIDi1cOWQxNAABAABGDo04YNKiKAACAAFZUWu+1HAAFAABCAfmcG9zVBAAFAAJqoO2+PiQAgAAiAt6e/dQNHABAA64qyzR1CABAABKDNZ7hbY0MAPBGAyYcefd1dU48dzv/hGWzd8fiLyzqtEQAEAAEo62xiP6MSQAA8EYBtD+6+ZnJqd8L/4RncPfXYYaOeaNn2CAACgABkZwO3TRNAABAApGAeMUIAiof2MTvL23bJw1tOLuOCmdy77AynQ3j78qSx/t+3/PQy5oB92EEAAUAAEAAEICkzqKvaFwLQYPBn0oEA2JHcJfUCAUAAEAAEAAHIAo5b/bMLCEBJ0WvHbhAABAABQAAQAIJfH/wZHwTAjuQuqRcIAAKAACAACEAWcNzqRQABKCl67dgNAoAAIAAIAAJA8OuDP+ODANiR3CX1AgFAABAABAAByAKOW70IIAAlRa8du0EAEAAEAAFAAAh+ffBnfBAAO5K7pF4gAAgAAoAAIABZwHGrFwEEoKTotWM3CAACgAAgAAgAwa8P/owPAmBHcpfUCwQAAUAAEAAEIAs4bvUigACUFL127AYBQAAQAAQAASD49cGf8UEA7EjuknqBACAACAACgABkAcetXgQQgJKi147dIAAIAAKAACAABL8++DM+CIAdyV1SLxAABAABQAAQgCzguNWLAAJQUvTasRsEAAFAABAABIDg1wd/xgcBsCO5S+oFAoAAIAAIAAKQBRy3ehFAAEqKXjt2gwAgAAgAAoAAEPz64M/4IAB2JHdJvUAAEAAEAAFAALKA41YvAghASdFrx24QAAQAAUAAEACCXx/8GR8EwI7kLqkXCAACgAAgAAhAFnDc6kUAASgpeu3YDQKAACAACAACQPDrgz/jgwDYkdwl9QIBQAAQAAQAAcgCjlu9CCAAJUWvHbtBABAABAABQAAIfn3wZ3wQADuSu6ReIAAIAAKAACAAWcBxqxcBBKCk6LVjNwgAAoAAIAAIAMGvD/6MDwJgR3KX1AsEAAFAABAABCALOG71IoAAlBS9duwGAUAAEAAEAAEg+PXBn/FBAOxI7pJ6gQAgAAgAAoAAZAHHrV4EEICSoteO3SAACAACgAAgAAS/PvgzPgiAHcldUi8QAAQAAUAAEIAs4LjViwACUFL02rEbBAABQAAQAASA4NcHf8YHAbAjuUvqBQKAACAACAACkAUct3oRQABKil47doMAIAAIAAKAABD8+uDP+CAAdiR3Sb1AABAABAABQACygONWLwIIQEnRa8duEAAEAAFAABAAgl8f/BkfBMCO5C6pFwgAAoAAIAAIQBZw3OpFAAEoKXrt2A0CgAAgAAgAAkDw64M/44MA2JHcJfUCAUAAEAAEAAHIAo5bvQggACVFrx27QQAQAAQAAUAACH598Gd8EAA7krukXiAACAACgAAgAFnAcasXgRIF4NydyZvO25lcw/8CDB5JVpfhAAgAAoAAIAAIAMGvD/6MT4kCcM7O5LhzdyYJ/wsx+AQCMEJ4ry9h2w3y6jLmoJZ9bHtw9zWT8wQd63f3laG7px47rKxJWrLz9k3H7NziRODa1s8lD285uYx5SO5ddkaSBRq3ZsGfcUIAbBEWBKCMEB9lHwhA/8Bsm0ggAHYICwKwfLiwzkK7zFsEAAEYJTTbtC0CgAAM+4iUZwCKywQCgADwckH+cgHPADQtEwgAAoAAFA/0YV9iQAAQAAQAAUiaDv7s+AgAAoAAIABevZ+AlwB4CSALQN9vEQAEAAFAABCAYc+Cfe35FED+aL6IVPASQNMCggAgAMNe+ngPQHFh4CUAXgLgJYBcGhAABMA8fvgYYHFZ4VMAxUN72Nf5de0RAAQAAUAAeA+Aee7nLREABEAXri6sQwAQAAQAAUAA8lg3X0AAEAAXQl7XRwQAAUAAEAAEwDz385YIAAKgC1cX1iEACAACgAAgAHmsmy8gAAiACyGv6yMCgAAgAAgAAmCe+3lLBAAB0IWrC+sQAAQAAUAAEIA81s0XEAAEwIWQ1/URAUAAEAAEAAEwz/28JQKAAOjC1YV1CAACgAAgAAhAHuvmCwgAAuBCyOv6iAAgAAgAAoAAmOd+3hIBQAB04erCOgQAAUAAEAAEII918wUEAAFwIeR1fUQAEAAEAAFAAMxzP2+JACAAunB1YR0CgAAgAAgAApDHuvkCAoAAuBDyuj4iAAgAAoAAIADmuZ+3RAAQAF24urAOAUAAEAAEAAHIY918AQFAAFwIeV0fEQAEAAFAABAA89zPWyIACIAuXF1YhwAgAAgAAoAA5LFuvoAAIAAuhLyujwgAAoAAIAAIgHnu5y0RAARAF64urEMAEAAEAAFAAPJYN19AABAAF0Je10cEAAFAABAABMA89/OWCAACoAtXF9YhAAgAAoAAIAB5rJsvIAAIgAshr+sjAoAAIAAIAAJgnvt5SwQAAdCFqwvrEAAEAAFAABCAPNbNFxAABMCFkNf1EQFAABAABAABMM/9vCUCgADowtWFdQgAAoAAIAAIQB7r5gsIAALgQsjr+ogAIAAIAAKAAJjnft4SAUAAdOHqwjoEAAFAABAABCCPdfMFBAABcCHkdX1EABAABAABQADMcz9viQAgALpwdWEdAoAAIAAIAAKQx7r5AgKAALgQ8ro+IgAIAAKAACAA5rmft0QAEABduLqwDgFAABAABAAByGPdfAEBQABcCHldHxEABAABQAAQAPPcz1siAAiALlxdWIcAIAAIAAKAAOSxbr6AACAALoS8ro8IAAKAACAACIB57uctEQAEQBeuLqxDABAABAABQADyWDdfQAAQABdCXtdHBAABQAAQAATAPPfzlggAAqALVxfWIQAIAAKAACAAeaybLyAACIALIa/rIwKAACAACAACYJ77eUsEAAHQhasL6xAABAABQAAQgDzWzRcQAATAhZDX9REBQAAQAAQAATDP/bwlAoAA6MLVhXUIAAKAACAACEAe6+YLCAAC4ELI6/qIACAACAACgACY537eEgFAAHTh6sI6BAABQAAQAAQgj3XzBQQAAXAh5HV9RAAQAAQAAUAAzHM/b4kAIAC6cHVhHQKAACAACAACkMe6+QICgAC4EPK6PiIACAACgAAgAOa5n7dEABAAXbi6sA4BQAAQAAQAAchj3XwBAUAAXAh5XR8RAAQAAUAAEADz3M9bIgAIgC5cXViHACAACAACgADksW6+gAAgAC6EvK6PCAACgAAgAAiAee7nLREABEAXri6sQwAQAAQAAUAA8lg3X0AAEAAXQl7XRwQAAUAAEAAEwDz385YIAAKgC1cX1iEACAACgAAgAHmsmy8gAAiACyGv6yMCgAAgAAgAAmCe+3lLBAAB0IWrC+sQAAQAAUAAEIA81s0XEAAEwIWQ1/URAUAAEAAEAAEwz/28JQKAAOjC1YV1CAACgAAgAAhAHuvmCwgAAuBCyOv6iAAgAAgAAoAAmOd+3hIBQAB04erCOgQAAUAAEAAEII918wUEAAFwIeR1fUQAEAAEAAFAAMxzP2+JACAAunB1YR0CgAAgAAgAApDHuvkCAoAAuBDyuj4iAAgAAoAAIADmuZ+3RAAQAF24urAOAUAAEAAEAAHIY918AQFAAFwIeV0fEQAEAAFAABAA89zPWyIACIAuXF1YhwAgAAgAAoAA5LFuvoAAIAAuhLyujwgAAoAAIAAIgHnu5y0RAARAF64urEMAEAAEAAFAAPJYN19AABAAF0Je10cEAAFAABAABMA89/OWCAACoAtXF9YhAAgAAoAAIAB5rJsvIAAIgAshr+sjAoAAIAAIAAJgnvt5SwQAAdCFqwvrEAAEAAFAABCAPNbNFxAABMCFkNf1EQFAABAABAABMM/9vCUCgADowtWFdQgAAoAAIAAIQB7r5gsIAALgQsjr+ogAIAAIAAKAAJjnft4SAUAAdOHqwjoEAAFAABAABCCPdfMFBAABcCHkdX1EABAABAABQADMcz9viQAgALpwdWEdAoAAIAAIAAKQx7r5AgKAALgQ8ro+IgAIAAKAACAA5rmft0QAEABduLqwDgFAABAABAAByGPdfAEBQABcCHldHxEABAABQAAQAPPcz1siAAiALlxdWIcAIAAIAAKAAOSxbr6AACAALoS8ro8IAAKAACAACIB57uctEQAEQBeuLqxDABAABAABQADyWDdfQAAQABdCXtdHBAABQAAQAATAPPfzlggAAqALVxfWIQAIAAKAACAAeaybLyAACIALIa/rIwKAACAACAACYJ77eUsEAAHQhasL6xAABAABQAAQgDzWzRcQAATAhZDX9REBQAAQAAQAATDP/bwlAoAA6MLVhXUIAAKAACAACEAe6+YLCAAC4ELI6/qIACAACAACgACY537eEgFAAHTh6sI6BAABQAAQAAQgj3XzBQQAAXAh5HV9RAAQAAQAAUAAzHM/b4kAIAC6cHVhHQKAACAACAACkMe6+QICgAC4EPK6PiIACAACgAAgAOa5n7dEABAAXbi6sA4BQAAQAAQAAchj3XwBAUAAXAh5XR8RAAQAAUAAEADz3M9bIgAIgC5cXViHACAACAACgADksW6+gAAgAC6EvK6PCAACgAAgAAiAee7nLREABEAXri6sQwAQAAQAAUAA8lg3X0AAEAAXQl7XRwQAAUAAEAAEwDz385YIAAKgC1cX1iEACAACgAAgAHmsmy8gAAiACyGv6yMCgAAgAAgAAmCe+3lLBAAB0IWrC+sQAAQAAUAAEIA81s0XEAAEwIWQ1/URAUAAEAAEAAEwz/28JQKAAOjC1YV1CAACgAAgAAhAHuvmCwgAAuBCyOv6iAAgAAgAAoAAmOd+3hIBQAB04erCOgQAAUAAEAAEII918wUEAAFwIeR1fUQAEAAEAAFAAMxzP2+JACAAunB1YR0CgAAgAAgAApDHuvkCAoAAuBDyuj4iAAgAAoAAIADmuZ+3RAAQAF24urAOAUAAEAAEAAHIY918AQFAAFwIeV0fEQAEAAFAABAA89zPWyIACIAuXF1YhwAgAAgAAoAA5LFuvoAAIAAuhLyujwgAAoAAIAAIgHnu5y0RAARAF64urEMAEAAEAAFAAPJYN19AABAAF0Je10cEAAFAABAABMA89/OWCAACoAtXF9YhAAgAAoAAIAB5rJsvIAAIgAshr+sjAoAAIAAIAAJgnvt5SwQAAdCFqwvrEAAEAAFAABCAPNbNFxAABMCFkNf1EQFAABAABAABMM/9vCUCgADowtWFdQgAAoAAIAAIQB7r5gsIAALgQsjr+ogAIAAIAAKAAJjnft4SAUAAdOHqwjoEAAFAABAABCCPdfMFBAABcCHkdX1EABAABAABQADMcz9viQAgALpwdWEdAoAAIAAIAAKQx7r5AgKAALgQ8ro+IgAIAAKAACAA5rmft0QAEABduLqwDgFAABAABAAByGPdfAEBQABcCHldHxEABAABQAAQAPPcz1siAAiALlxdWIcAIAAIAAKAAOSxbr6AACAALoS8ro8IAAKAACAACIB57uctEQAEQBeuLqxDABAABAABQADyWDdfQAAQABdCXtdHBAABQAAQAATAPPfzlggAAqALVxfWIQAIAAKAACAAeaybLyAACIALIa/rIwKAACAACAACYJ77eUsEAAHQhasL6xAABAABQAAQgDzWzRcQAATAhZDX9REBQAAQAAQAATDP/bwlAoAA6MLVhXUIAAKAACAACEAe6+YLCAAC4ELI6/qIACAACAACgACY537eEgFAAHTh6sI6BAABQAAQAAQgj3XzBQQAAXAh5HV9RAAQAAQAAUAAzHM/b4kAIAC6cHVhHQKAACAACAACkMe6+QICgAC4EPK6PiIACAACgAAgAOa5n7dEABAAXbi6sA4BaJcAvP97yaHnPpLczP8CDHYm6/OL+wgLyfqlf5islzfzvwCDdeFZI6Cvd9NtU7s2TU7tnuT/8Azu2vHoG8uarWMe2RIfs/P2Sf4Pz+Doh7ccW8Y8JPetWJlsXz7J/yIMlp1QxhywDwhAAAIQgAAEIAABCEAAAhCAAAQgAAEIQAACEIAABCAAAQhAAAIQgAAEIAABCEAAAhCAAAQgAAEIQAACEIAABCAAAQhAAAIQgAAEIAABCEAAAhCAAAQgAAEIQAACEIAABCAAAQhAAAIQgAAEIAABCEAAAhCAAAQgAAEIQAACEIAABCAAAQhAAAIQgAAEIAABCEAAAhCAAAQgAAEIQAACEIAABCAAAQhAAAIQgAAEIAABCEAAAhCAAAQgAAEIQAACEIAABCAAAQhAAAIQgAAEIAABCEAAAhCAAAQgAAEIQAACEIAABCAAgbYTuHbzTY/yHwbUADVADVAD1IBfNTB27eabEv7DgBqgBqgBaoAa8KsGEAAECAGkBqgBaoAa8LAGEAAPJx3L98vymW/mmxqgBvrVAAKAAGD+1AA1QA1QAx7WAALg4aT3M0Hu4xECNUANUAN+1QACgABg/tQANUANUAMe1gAC4OGkY/l+WT7zzXxTA9RAvxpAABAAzJ8aoAaoAWrAwxpAADyc9H4myH08QqAGqAFqwK8aQAAQAMyfGqAGqAFqwMMaQAA8nHQs3y/LZ76Zb2qAGuhXAwgAAoD5UwPUADVADXhYAwiAh5PezwS5j0cI1AA1QA34VQMIAAKA+VMD1AA1QA14WAMIgIeTjuX7ZfnMN/NNDVAD/WoAAUAAMH9qgBqgBqgBD2sAAfBw0vuZIPfxCIEaoAaoAb9qAAFAADB/aoAaoAaoAQ9rAAHwcNKxfL8sn/lmvqkBaqBfDSAACADmTw1QA9QANeBhDSAAHk56PxPkPh4hUAPUADXgVw0gAAgA5k8NUAPUADXgYQ0gAB5OOpbvl+Uz38w3NUAN9KsBBAABwPypAWqAGqAGPKwBBMDDSe9ngtzHIwRqgBqgBvyqgbFrN988yX8YUAPUADVADVADftXAGP8gAAEIQAACEIAABCAAAQhAAAIQgAAEIAABCEAAAhBoI4H/D7l9PLO4fXBuAAAAAElFTkSuQmCC;" parent="1" vertex="1">
          <mxGeometry x="745" y="229.5" width="70" height="70" as="geometry" />
        </mxCell>
      </root>
    </mxGraphModel>
  </diagram>
</mxfile>
